<svg width="201" height="200" viewBox="0 0 201 200" fill="none" xmlns="http://www.w3.org/2000/svg">
<rect width="201" height="200" rx="40" fill="url(#paint0_radial_98_12983)"/>
<path d="M32.2727 147V53.9091H63.7273C71.0303 53.9091 77 55.2273 81.6364 57.8636C86.303 60.4697 89.7576 64 92 68.4545C94.2424 72.9091 95.3636 77.8788 95.3636 83.3636C95.3636 88.8485 94.2424 93.8333 92 98.3182C89.7879 102.803 86.3636 106.379 81.7273 109.045C77.0909 111.682 71.1515 113 63.9091 113H41.3636V103H63.5455C68.5455 103 72.5606 102.136 75.5909 100.409C78.6212 98.6818 80.8182 96.3485 82.1818 93.4091C83.5758 90.4394 84.2727 87.0909 84.2727 83.3636C84.2727 79.6364 83.5758 76.303 82.1818 73.3636C80.8182 70.4242 78.6061 68.1212 75.5455 66.4545C72.4849 64.7576 68.4242 63.9091 63.3636 63.9091H43.5455V147H32.2727ZM106.312 147V53.9091H141.221C148.372 53.9091 154.372 55.2424 159.221 57.9091C164.1 60.5758 167.782 64.2424 170.266 68.9091C172.782 73.5455 174.039 78.8182 174.039 84.7273C174.039 90.697 172.782 96 170.266 100.636C167.751 105.273 164.039 108.924 159.13 111.591C154.221 114.227 148.175 115.545 140.994 115.545H117.857V101.682H138.721C142.903 101.682 146.327 100.955 148.994 99.5C151.66 98.0455 153.63 96.0455 154.903 93.5C156.206 90.9545 156.857 88.0303 156.857 84.7273C156.857 81.4242 156.206 78.5152 154.903 76C153.63 73.4848 151.645 71.5303 148.948 70.1364C146.282 68.7121 142.842 68 138.63 68H123.175V147H106.312Z" fill="white"/>
<defs>
<radialGradient id="paint0_radial_98_12983" cx="0" cy="0" r="1" gradientUnits="userSpaceOnUse" gradientTransform="translate(101 8.49999) rotate(90.1496) scale(191.501 192.458)">
<stop stop-color="#084E67"/>
<stop offset="1" stop-color="#032D3C"/>
</radialGradient>
</defs>
</svg>
