<svg width="600" height="200" viewBox="0 0 600 200" fill="none" xmlns="http://www.w3.org/2000/svg">
<path d="M32.2727 147V53.9091H63.7273C71.0303 53.9091 77 55.2273 81.6364 57.8636C86.303 60.4697 89.7576 64 92 68.4545C94.2424 72.9091 95.3636 77.8788 95.3636 83.3636C95.3636 88.8485 94.2424 93.8333 92 98.3182C89.7879 102.803 86.3636 106.379 81.7273 109.045C77.0909 111.682 71.1515 113 63.9091 113H41.3636V103H63.5455C68.5455 103 72.5606 102.136 75.5909 100.409C78.6212 98.6818 80.8182 96.3485 82.1818 93.4091C83.5758 90.4394 84.2727 87.0909 84.2727 83.3636C84.2727 79.6364 83.5758 76.303 82.1818 73.3636C80.8182 70.4242 78.6061 68.1212 75.5455 66.4545C72.4849 64.7576 68.4242 63.9091 63.3636 63.9091H43.5455V147H32.2727ZM117.675 53.9091V147H106.948V53.9091H117.675ZM152.749 148.636C148.324 148.636 144.309 147.803 140.703 146.136C137.097 144.439 134.233 142 132.112 138.818C129.991 135.606 128.93 131.727 128.93 127.182C128.93 123.182 129.718 119.939 131.294 117.455C132.87 114.939 134.976 112.97 137.612 111.545C140.249 110.121 143.158 109.061 146.34 108.364C149.552 107.636 152.779 107.061 156.021 106.636C160.264 106.091 163.703 105.682 166.34 105.409C169.006 105.106 170.946 104.606 172.158 103.909C173.4 103.212 174.021 102 174.021 100.273V99.9091C174.021 95.4242 172.794 91.9394 170.34 89.4545C167.915 86.9697 164.233 85.7273 159.294 85.7273C154.173 85.7273 150.158 86.8485 147.249 89.0909C144.34 91.3333 142.294 93.7273 141.112 96.2727L130.93 92.6364C132.749 88.3939 135.173 85.0909 138.203 82.7273C141.264 80.3333 144.597 78.6667 148.203 77.7273C151.84 76.7576 155.415 76.2727 158.93 76.2727C161.173 76.2727 163.749 76.5455 166.658 77.0909C169.597 77.6061 172.43 78.6818 175.158 80.3182C177.915 81.9545 180.203 84.4242 182.021 87.7273C183.84 91.0303 184.749 95.4545 184.749 101V147H174.021V137.545H173.476C172.749 139.061 171.537 140.682 169.84 142.409C168.143 144.136 165.885 145.606 163.067 146.818C160.249 148.03 156.809 148.636 152.749 148.636ZM154.385 139C158.627 139 162.203 138.167 165.112 136.5C168.052 134.833 170.264 132.682 171.749 130.045C173.264 127.409 174.021 124.636 174.021 121.727V111.909C173.567 112.455 172.567 112.955 171.021 113.409C169.506 113.833 167.749 114.212 165.749 114.545C163.779 114.848 161.855 115.121 159.976 115.364C158.127 115.576 156.627 115.758 155.476 115.909C152.688 116.273 150.082 116.864 147.658 117.682C145.264 118.47 143.324 119.667 141.84 121.273C140.385 122.848 139.658 125 139.658 127.727C139.658 131.455 141.037 134.273 143.794 136.182C146.582 138.061 150.112 139 154.385 139ZM203.617 173.182C201.799 173.182 200.178 173.03 198.754 172.727C197.329 172.455 196.345 172.182 195.799 171.909L198.526 162.455C201.132 163.121 203.435 163.364 205.435 163.182C207.435 163 209.208 162.106 210.754 160.5C212.329 158.924 213.769 156.364 215.072 152.818L217.072 147.364L191.254 77.1818H202.89L222.163 132.818H222.89L242.163 77.1818H253.799L224.163 157.182C222.829 160.788 221.178 163.773 219.208 166.136C217.238 168.53 214.951 170.303 212.345 171.455C209.769 172.606 206.86 173.182 203.617 173.182ZM262.202 147V53.9091H297.111C304.262 53.9091 310.262 55.2424 315.111 57.9091C319.99 60.5758 323.672 64.2424 326.156 68.9091C328.672 73.5455 329.929 78.8182 329.929 84.7273C329.929 90.697 328.672 96 326.156 100.636C323.641 105.273 319.929 108.924 315.02 111.591C310.111 114.227 304.065 115.545 296.884 115.545H273.747V101.682H294.611C298.793 101.682 302.217 100.955 304.884 99.5C307.55 98.0455 309.52 96.0455 310.793 93.5C312.096 90.9545 312.747 88.0303 312.747 84.7273C312.747 81.4242 312.096 78.5152 310.793 76C309.52 73.4848 307.535 71.5303 304.838 70.1364C302.172 68.7121 298.732 68 294.52 68H279.065V147H262.202ZM357.57 148.409C353.146 148.409 349.161 147.621 345.616 146.045C342.101 144.439 339.313 142.076 337.252 138.955C335.222 135.833 334.207 131.985 334.207 127.409C334.207 123.47 334.934 120.212 336.389 117.636C337.843 115.061 339.828 113 342.343 111.455C344.858 109.909 347.692 108.742 350.843 107.955C354.025 107.136 357.313 106.545 360.707 106.182C364.798 105.758 368.116 105.379 370.661 105.045C373.207 104.682 375.055 104.136 376.207 103.409C377.389 102.652 377.98 101.485 377.98 99.9091V99.6364C377.98 96.2121 376.964 93.5606 374.934 91.6818C372.904 89.803 369.98 88.8636 366.161 88.8636C362.131 88.8636 358.934 89.7424 356.57 91.5C354.237 93.2576 352.661 95.3333 351.843 97.7273L336.48 95.5455C337.692 91.303 339.692 87.7576 342.48 84.9091C345.267 82.0303 348.677 79.8788 352.707 78.4545C356.737 77 361.192 76.2727 366.07 76.2727C369.434 76.2727 372.783 76.6667 376.116 77.4545C379.449 78.2424 382.495 79.5455 385.252 81.3636C388.01 83.1515 390.222 85.5909 391.889 88.6818C393.586 91.7727 394.434 95.6364 394.434 100.273V147H378.616V137.409H378.07C377.07 139.348 375.661 141.167 373.843 142.864C372.055 144.53 369.798 145.879 367.07 146.909C364.373 147.909 361.207 148.409 357.57 148.409ZM361.843 136.318C365.146 136.318 368.01 135.667 370.434 134.364C372.858 133.03 374.722 131.273 376.025 129.091C377.358 126.909 378.025 124.53 378.025 121.955V113.727C377.51 114.152 376.631 114.545 375.389 114.909C374.177 115.273 372.813 115.591 371.298 115.864C369.783 116.136 368.283 116.379 366.798 116.591C365.313 116.803 364.025 116.985 362.934 117.136C360.48 117.47 358.283 118.015 356.343 118.773C354.404 119.53 352.873 120.591 351.752 121.955C350.631 123.288 350.07 125.015 350.07 127.136C350.07 130.167 351.177 132.455 353.389 134C355.601 135.545 358.419 136.318 361.843 136.318ZM431.769 148.227C426.284 148.227 421.375 146.818 417.041 144C412.708 141.182 409.284 137.091 406.769 131.727C404.253 126.364 402.996 119.848 402.996 112.182C402.996 104.424 404.269 97.8788 406.814 92.5455C409.39 87.1818 412.86 83.1364 417.223 80.4091C421.587 77.6515 426.45 76.2727 431.814 76.2727C435.905 76.2727 439.269 76.9697 441.905 78.3636C444.541 79.7273 446.632 81.3788 448.178 83.3182C449.723 85.2273 450.92 87.0303 451.769 88.7273H452.45V53.9091H468.95V147H452.769V136H451.769C450.92 137.697 449.693 139.5 448.087 141.409C446.481 143.288 444.36 144.894 441.723 146.227C439.087 147.561 435.769 148.227 431.769 148.227ZM436.36 134.727C439.844 134.727 442.814 133.788 445.269 131.909C447.723 130 449.587 127.348 450.86 123.955C452.132 120.561 452.769 116.606 452.769 112.091C452.769 107.576 452.132 103.652 450.86 100.318C449.617 96.9848 447.769 94.3939 445.314 92.5455C442.89 90.697 439.905 89.7727 436.36 89.7727C432.693 89.7727 429.632 90.7273 427.178 92.6364C424.723 94.5455 422.875 97.1818 421.632 100.545C420.39 103.909 419.769 107.758 419.769 112.091C419.769 116.455 420.39 120.348 421.632 123.773C422.905 127.167 424.769 129.848 427.223 131.818C429.708 133.758 432.753 134.727 436.36 134.727ZM512.274 148.364C505.274 148.364 499.228 146.909 494.137 144C489.077 141.061 485.183 136.909 482.455 131.545C479.728 126.152 478.365 119.803 478.365 112.5C478.365 105.318 479.728 99.0152 482.455 93.5909C485.213 88.1364 489.062 83.8939 494.001 80.8636C498.94 77.803 504.743 76.2727 511.41 76.2727C515.713 76.2727 519.774 76.9697 523.592 78.3636C527.44 79.7273 530.834 81.8485 533.774 84.7273C536.743 87.6061 539.077 91.2727 540.774 95.7273C542.471 100.152 543.319 105.424 543.319 111.545V116.591H486.092V105.5H527.546C527.516 102.348 526.834 99.5455 525.501 97.0909C524.168 94.6061 522.304 92.6515 519.91 91.2273C517.546 89.803 514.789 89.0909 511.637 89.0909C508.274 89.0909 505.319 89.9091 502.774 91.5455C500.228 93.1515 498.243 95.2727 496.819 97.9091C495.425 100.515 494.713 103.379 494.683 106.5V116.182C494.683 120.242 495.425 123.727 496.91 126.636C498.395 129.515 500.471 131.727 503.137 133.273C505.804 134.788 508.925 135.545 512.501 135.545C514.895 135.545 517.062 135.212 519.001 134.545C520.94 133.848 522.622 132.833 524.046 131.5C525.471 130.167 526.546 128.515 527.274 126.545L542.637 128.273C541.668 132.333 539.819 135.879 537.092 138.909C534.395 141.909 530.94 144.242 526.728 145.909C522.516 147.545 517.698 148.364 512.274 148.364ZM568.574 53.9091V147H552.12V53.9091H568.574Z" fill="white"/>
</svg>
